<?xml version="1.0" encoding="UTF-8"?>
<svg width="2348px" height="600px" viewBox="0 0 2348 600" version="1.1" xmlns="http://www.w3.org/2000/svg" xmlns:xlink="http://www.w3.org/1999/xlink">
    <title>Now_Light_Text_horizontal</title>
    <g id="Now_Light_Text_horizontal" stroke="none" stroke-width="1" fill="none" fill-rule="evenodd">
        <g id="编组-2备份-6" transform="translate(97.000000, 60.000000)">
            <path d="M24.0530695,0.126019191 C37.2076731,0.126019191 47.8937333,10.5201529 48.1061391,23.418307 L48.1019736,457.034901 C47.7824556,469.839802 37.1392225,480.126045 24.0530695,480.126045 C10.898466,480.126045 0.212405744,469.731911 0,456.833757 L0.00416544778,23.2171629 C0.323683496,10.4122615 10.9669166,0.126019191 24.0530695,0.126019191 Z" id="形状" fill="#009191" fill-rule="nonzero"></path>
            <path d="M411.940511,0.620134881 C425.095115,0.620134881 435.781175,11.0142686 435.996803,23.9124227 L435.996803,456.747091 C435.996803,469.634344 425.599758,479.868938 412.694666,480.078095 C398.873821,479.432596 388.000249,468.039323 388.000249,454.203413 L388.000249,21.963145 L388.000249,21.963145 C389.194217,9.98295395 399.455558,0.620134881 411.940511,0.620134881 Z" id="路径" fill="#009191" fill-rule="nonzero"></path>
            <path d="M108.328357,69.1739647 L344.252169,308.747443 C346.462881,310.992354 347.702011,314.016654 347.702011,317.167348 L347.702011,407.492262 C347.702011,414.119679 342.329428,419.492262 335.702011,419.492262 C332.382546,419.492262 329.211368,418.117252 326.942535,415.694187 L91.2213839,163.949148 C89.1466864,161.733416 87.988772,158.81376 87.9809008,155.77834 L87.7782398,77.6249868 C87.7610541,70.9975921 93.1196874,65.6110954 99.7470821,65.5939098 C102.97239,65.5855462 106.065284,66.8758826 108.328357,69.1739647 Z" id="路径" fill="#009191" fill-rule="nonzero"></path>
            <path d="M294.790636,480 L101.501306,478.437483 C93.92346,478.437483 87.7632895,472.544825 87.7002349,465.237439 L87.702472,258.306424 C87.6408416,250.957048 93.7690349,244.951023 101.390175,244.89073 C105.356945,244.860655 109.145675,246.477412 111.789597,249.329313 L305.078467,457.822845 C310.158091,463.302047 309.669922,471.714828 303.98811,476.613317 C301.458348,478.794313 298.183973,480 294.790636,480 Z" id="路径-11备份" fill="#FFCC66"></path>
            <path d="M136.847144,0 L333.71245,0 C341.33384,0 347.512196,5.95804079 347.512196,13.3076566 L347.512196,222.505147 C347.512196,229.854763 341.33384,235.812804 333.71245,235.812804 C329.820234,235.812804 326.109007,234.227738 323.493341,231.44822 L126.628034,22.2507293 C121.506273,16.8081271 121.929517,8.39207616 127.573375,3.45295346 C130.112456,1.2309217 133.418404,0 136.847144,0 Z" id="路径-11备份-2" fill="#FF6666"></path>
        </g>
        <path d="M817.4,510 L817.4,222.6 L1007.6,510 L1091.6,510 L1091.6,90.6 L1007.6,90.6 L1007.6,378.6 L817.4,90.6 L733.4,90.6 L733.4,510 L817.4,510 Z M1370.06,514.2 C1409.26,514.2 1445.26,505 1478.06,486.6 C1510.86,468.2 1536.76,442.7 1555.76,410.1 C1574.76,377.5 1584.26,340.6 1584.26,299.4 C1584.26,258.6 1574.76,221.9 1555.76,189.3 C1536.76,156.7 1510.96,131.2 1478.36,112.8 C1445.76,94.4 1409.66,85.2 1370.06,85.2 C1330.86,85.2 1294.86,94.4 1262.06,112.8 C1229.26,131.2 1203.26,156.7 1184.06,189.3 C1164.86,221.9 1155.26,258.6 1155.26,299.4 C1155.26,340.6 1164.86,377.5 1184.06,410.1 C1203.26,442.7 1229.26,468.2 1262.06,486.6 C1294.86,505 1330.86,514.2 1370.06,514.2 Z M1370.06,439.2 C1344.86,439.2 1322.56,433.5 1303.16,422.1 C1283.76,410.7 1268.66,394.4 1257.86,373.2 C1247.06,352 1241.66,327.4 1241.66,299.4 C1241.66,271.4 1247.06,246.9 1257.86,225.9 C1268.66,204.9 1283.76,188.8 1303.16,177.6 C1322.56,166.4 1344.86,160.8 1370.06,160.8 C1395.26,160.8 1417.46,166.4 1436.66,177.6 C1455.86,188.8 1470.86,204.9 1481.66,225.9 C1492.46,246.9 1497.86,271.4 1497.86,299.4 C1497.86,327.4 1492.46,352 1481.66,373.2 C1470.86,394.4 1455.86,410.7 1436.66,422.1 C1417.46,433.5 1395.26,439.2 1370.06,439.2 Z M1732.52,510.6 L1830.92,510 L1913.12,211.8 L1991.72,510 L2090.72,510 L2207.72,91.2 L2117.12,91.2 L2042.72,414.6 L1962.32,91.2 L1868.72,91.2 L1783.52,416.4 L1709.72,91.2 L1619.72,91.2 L1732.52,510.6 Z" id="NOW" fill="#009191" fill-rule="nonzero"></path>
    </g>
</svg>